<svg xmlns="http://www.w3.org/2000/svg" viewBox="0 0 301.33 83.21"><defs><style>.cls-1,.cls-3{fill:none;stroke:#fff;stroke-miterlimit:10;}.cls-1{stroke-width:2px;}.cls-2{fill:#fff;}.cls-3{stroke-linecap:round;stroke-width:2.35px;}</style></defs><title>Asset 1logo</title><g id="Layer_2" data-name="Layer 2"><g id="Layer_1-2" data-name="Layer 1"><circle class="cls-1" cx="41.61" cy="41.61" r="40.61"/><path class="cls-2" d="M48.58,81.61a10.81,10.81,0,0,1-1.89-1.49,11.51,11.51,0,0,1-3.39-7.59h0a2.35,2.35,0,0,1,0-.38c-.11-4.51,0-22.66,0-33.14a7.13,7.13,0,0,1,1.84-5.49,6.44,6.44,0,0,1,9.59-.16,7.12,7.12,0,0,1,2,4.9h0q-.06,11.42-.13,22.84a1.21,1.21,0,0,1-.68,1.13,1.09,1.09,0,0,1-.82,0,1.16,1.16,0,0,1-.7-1q0-11.48,0-22.93a4.64,4.64,0,0,0-4.33-4.63,4.31,4.31,0,0,0-3.2,1.45,4.82,4.82,0,0,0-1.23,3.73V39c0,10.49-.11,28.74,0,33.17v.31a9.16,9.16,0,0,0,2.7,6,9,9,0,0,0,4.13,2.29"/><line class="cls-3" x1="55.58" y1="40.25" x2="50.76" y2="45.06"/><line class="cls-3" x1="55.63" y1="46.91" x2="59.78" y2="51.06"/><line class="cls-3" x1="67.21" y1="45.06" x2="71.36" y2="49.21"/><line class="cls-3" x1="67.21" y1="34.24" x2="71.36" y2="38.39"/><line class="cls-3" x1="55.24" y1="52.87" x2="50.85" y2="57.26"/><line class="cls-3" x1="66.58" y1="40.01" x2="62.19" y2="44.4"/><line class="cls-3" x1="66.58" y1="29.44" x2="62.19" y2="33.84"/><path class="cls-3" d="M44.44,38.3l.21-8.85A11.28,11.28,0,0,1,56,19a11.23,11.23,0,0,1,10.8,10.7V56.11"/><path class="cls-2" d="M35,81.68A9.47,9.47,0,0,0,37.1,80c2.4-2.65,2.52-6.07,2.58-7.53.23-6.42.44-18.8.31-34.32a7.2,7.2,0,0,0-1.85-5.49,6.44,6.44,0,0,0-9.59-.16,7.12,7.12,0,0,0-2,4.9h0c0,13.33,0,23.1.09,23.94a1.66,1.66,0,0,0,.39.89,1,1,0,0,0,1.62,0A1.61,1.61,0,0,0,29,61Q29,49.21,28.88,37.39a4.64,4.64,0,0,1,4.33-4.63,4.27,4.27,0,0,1,3.2,1.46A4.82,4.82,0,0,1,37.64,38v.13c.13,15.51-.07,27.88-.31,34.28,0,1.3-.15,4-2,6a8.19,8.19,0,0,1-4.53,2.38l1,.25c.41.11.82.2,1.21.29l1,.19Z"/><line class="cls-3" x1="27.71" y1="39.37" x2="32.52" y2="44.19"/><line class="cls-3" x1="27.71" y1="46.4" x2="23.56" y2="50.55"/><line class="cls-3" x1="16.46" y1="45.06" x2="12.31" y2="49.21"/><line class="cls-3" x1="16.46" y1="34.24" x2="12.31" y2="38.39"/><line class="cls-3" x1="28.03" y1="52.87" x2="32.42" y2="57.26"/><line class="cls-3" x1="17.07" y1="39.41" x2="21.47" y2="43.8"/><line class="cls-3" x1="17.07" y1="29.39" x2="21.47" y2="33.78"/><path class="cls-3" d="M38.83,37l0-8.46A11.21,11.21,0,0,0,27.53,18.12a11.21,11.21,0,0,0-10.8,10.7V56.05"/><path class="cls-2" d="M126.13,57.89a2.71,2.71,0,0,1-1.63-.46,3.18,3.18,0,0,1-1-1.37l-9.55-21.44a2.45,2.45,0,0,1-.22-1.61,1.86,1.86,0,0,1,.77-1.09,2.77,2.77,0,0,1,3,0,3.63,3.63,0,0,1,.9,1.37L127,53.43h-1.58l8.64-20.12A3.72,3.72,0,0,1,135,32a2.38,2.38,0,0,1,1.54-.46,2.13,2.13,0,0,1,1.33.41,1.82,1.82,0,0,1,.68,1.09,2.63,2.63,0,0,1-.26,1.61l-9.55,21.44a3.28,3.28,0,0,1-1,1.37A2.61,2.61,0,0,1,126.13,57.89Z"/><path class="cls-2" d="M142,35.06c-.95,0-1.42-.45-1.42-1.35a1.36,1.36,0,0,1,.36-1,1.5,1.5,0,0,1,1.06-.34h9c.95,0,1.43.45,1.43,1.35a1.36,1.36,0,0,1-.37,1,1.45,1.45,0,0,1-1.06.36Zm4.5,22.79a2.15,2.15,0,0,1-1.68-.65,2.67,2.67,0,0,1-.59-1.83V41.94a2.67,2.67,0,0,1,.59-1.85,2.18,2.18,0,0,1,1.68-.64,2.25,2.25,0,0,1,1.7.64,2.58,2.58,0,0,1,.61,1.85V55.37a2.67,2.67,0,0,1-.59,1.83A2.2,2.2,0,0,1,146.54,57.85Z"/><path class="cls-2" d="M162.71,58a8.72,8.72,0,0,1-4-.81,5.19,5.19,0,0,1-2.36-2.36,8.71,8.71,0,0,1-.76-3.86V43.15h-1.91a1.86,1.86,0,0,1-1.35-.46,1.92,1.92,0,0,1,0-2.54,1.94,1.94,0,0,1,1.35-.44h1.91V36.38a2.29,2.29,0,0,1,.6-1.72,2.34,2.34,0,0,1,1.7-.58,2.27,2.27,0,0,1,1.68.58,2.33,2.33,0,0,1,.59,1.72v3.33h3.88a1.94,1.94,0,0,1,1.35.44,2,2,0,0,1,0,2.54,1.86,1.86,0,0,1-1.35.46h-3.88v7.53a3.87,3.87,0,0,0,.77,2.64,3.15,3.15,0,0,0,2.48.88,5.11,5.11,0,0,0,1.1-.11,6.87,6.87,0,0,1,.84-.15.88.88,0,0,1,.74.28,1.92,1.92,0,0,1,.29,1.26,3.31,3.31,0,0,1-.24,1.3,1.39,1.39,0,0,1-.86.78,10.33,10.33,0,0,1-1.24.28A9.21,9.21,0,0,1,162.71,58Z"/><path class="cls-2" d="M177.46,58a9.75,9.75,0,0,1-4.83-1.14,7.9,7.9,0,0,1-3.19-3.24,10.34,10.34,0,0,1-1.13-5,10.81,10.81,0,0,1,.64-3.86,8.22,8.22,0,0,1,1.85-2.93A7.89,7.89,0,0,1,173.69,40a10.64,10.64,0,0,1,3.77-.64,9.8,9.8,0,0,1,4.83,1.14,8,8,0,0,1,3.18,3.22,10.24,10.24,0,0,1,1.13,4.94,10.91,10.91,0,0,1-.64,3.87,8.08,8.08,0,0,1-1.85,3,7.74,7.74,0,0,1-2.89,1.86A10.41,10.41,0,0,1,177.46,58Zm0-3.48a4.12,4.12,0,0,0,4-2.62,8.21,8.21,0,0,0,.56-3.23,6.58,6.58,0,0,0-1.24-4.38,4.14,4.14,0,0,0-3.29-1.44,4.35,4.35,0,0,0-2.38.64,4.08,4.08,0,0,0-1.59,1.94,8,8,0,0,0-.57,3.24A6.66,6.66,0,0,0,174.16,53,4.09,4.09,0,0,0,177.46,54.49Z"/><path class="cls-2" d="M197.39,58a5.77,5.77,0,0,1-4.57-1.74,7.47,7.47,0,0,1-1.54-5.11V33.82a2.33,2.33,0,0,1,.59-1.72,2.28,2.28,0,0,1,1.68-.59,2.34,2.34,0,0,1,1.7.59,2.26,2.26,0,0,1,.61,1.72V50.9a3.63,3.63,0,0,0,.71,2.49,2.55,2.55,0,0,0,2,.81l.55,0a4.43,4.43,0,0,0,.51-.06.62.62,0,0,1,.7.28,3.56,3.56,0,0,1,.18,1.41,2.35,2.35,0,0,1-.37,1.42,1.63,1.63,0,0,1-1.2.62l-.77.08C197.93,58,197.66,58,197.39,58Z"/><path class="cls-2" d="M210.34,58a7.43,7.43,0,0,1-3.69-.83,5,5,0,0,1-2.18-2.47,10.43,10.43,0,0,1-.71-4.1V41.72a2.33,2.33,0,0,1,.58-1.74,2.36,2.36,0,0,1,1.69-.56,2.42,2.42,0,0,1,1.7.56,2.3,2.3,0,0,1,.6,1.74v8.93a4.34,4.34,0,0,0,.77,2.82,3.05,3.05,0,0,0,2.45.91,3.91,3.91,0,0,0,3-1.26,4.73,4.73,0,0,0,1.17-3.35V41.72a2,2,0,0,1,2.27-2.3,2.42,2.42,0,0,1,1.7.56,2.3,2.3,0,0,1,.6,1.74V55.55c0,1.56-.74,2.34-2.23,2.34a2.18,2.18,0,0,1-1.64-.6,2.41,2.41,0,0,1-.59-1.74V52.77l.51,1.1a6.27,6.27,0,0,1-2.32,3A6.36,6.36,0,0,1,210.34,58Z"/><path class="cls-2" d="M239.72,57.6a2.51,2.51,0,0,1-1.85-.64,2.53,2.53,0,0,1-.64-1.85V34.3a2.24,2.24,0,0,1,2.49-2.49h7.1q6.47,0,10,3.33t3.53,9.54a15.84,15.84,0,0,1-.89,5.51,10.52,10.52,0,0,1-2.64,4,11.43,11.43,0,0,1-4.24,2.51,17.8,17.8,0,0,1-5.76.86Zm2.2-3.88h4.6a12.18,12.18,0,0,0,3.94-.57,7,7,0,0,0,2.78-1.68,6.82,6.82,0,0,0,1.66-2.82,12.78,12.78,0,0,0,.55-4c0-3-.74-5.28-2.23-6.76s-3.72-2.24-6.7-2.24h-4.6Z"/><path class="cls-2" d="M263.35,35.06c-1,0-1.42-.45-1.42-1.35a1.36,1.36,0,0,1,.36-1,1.5,1.5,0,0,1,1.06-.34h9c.95,0,1.43.45,1.43,1.35a1.36,1.36,0,0,1-.37,1,1.45,1.45,0,0,1-1.06.36Zm4.5,22.79a2.15,2.15,0,0,1-1.68-.65,2.67,2.67,0,0,1-.59-1.83V41.94a2.67,2.67,0,0,1,.59-1.85,2.18,2.18,0,0,1,1.68-.64,2.25,2.25,0,0,1,1.7.64,2.58,2.58,0,0,1,.61,1.85V55.37a2.67,2.67,0,0,1-.59,1.83A2.2,2.2,0,0,1,267.85,57.85Z"/><path class="cls-2" d="M278.1,57.89a2.25,2.25,0,0,1-1.69-.6,2.41,2.41,0,0,1-.58-1.74V33.82a2.32,2.32,0,0,1,.58-1.72,2.28,2.28,0,0,1,1.69-.59,2.36,2.36,0,0,1,1.7.59,2.29,2.29,0,0,1,.6,1.72v13.5h.07l6-6.37a12.35,12.35,0,0,1,1.28-1.13,2.49,2.49,0,0,1,1.5-.4,2,2,0,0,1,1.45.49,1.66,1.66,0,0,1,.49,1.19,2,2,0,0,1-.66,1.39l-6.36,6.73v-1.9l7,7.53a1.89,1.89,0,0,1,.61,1.41,1.61,1.61,0,0,1-.61,1.17,2.06,2.06,0,0,1-1.39.46,2.91,2.91,0,0,1-1.63-.4,7.69,7.69,0,0,1-1.33-1.21l-6.37-6.66h-.07v5.93A2.05,2.05,0,0,1,278.1,57.89Zm6.11,9.22a1.38,1.38,0,0,1-.83.51,1.05,1.05,0,0,1-.8-.16.91.91,0,0,1-.41-.66,1.49,1.49,0,0,1,.32-1,3.8,3.8,0,0,0,.54-1.15,3.91,3.91,0,0,0,.19-1.12l.11.77a2.85,2.85,0,0,1-1.91-.57,2,2,0,0,1-.65-1.59,1.94,1.94,0,0,1,.64-1.57,2.67,2.67,0,0,1,1.81-.55,2.23,2.23,0,0,1,2.49,2.52,7.87,7.87,0,0,1-.17,1.58,8.15,8.15,0,0,1-.49,1.57A5.72,5.72,0,0,1,284.21,67.11Z"/><path class="cls-2" d="M298.62,36.05a2.88,2.88,0,0,1-2-.64,2.6,2.6,0,0,1,0-3.57,3,3,0,0,1,2-.62,2.93,2.93,0,0,1,2,.62,2.63,2.63,0,0,1,0,3.57A2.84,2.84,0,0,1,298.62,36.05Zm0,21.8a2.19,2.19,0,0,1-1.69-.65,2.66,2.66,0,0,1-.58-1.83V41.94a2.67,2.67,0,0,1,.58-1.85,2.22,2.22,0,0,1,1.69-.64,2.25,2.25,0,0,1,1.7.64,2.62,2.62,0,0,1,.6,1.85V55.37a2.66,2.66,0,0,1-.58,1.83A2.22,2.22,0,0,1,298.62,57.85Z"/></g></g></svg>